<svg width="512" height="512" viewBox="0 0 512 512" fill="none" xmlns="http://www.w3.org/2000/svg">
<path d="M77.84 321.592C76.24 321.592 74.784 321.384 73.472 320.968C72.192 320.584 70.992 320.04 69.872 319.336V314.584C71.088 315.352 72.24 315.912 73.328 316.264C74.448 316.616 75.696 316.792 77.072 316.792C78.384 316.792 79.552 316.488 80.576 315.88C81.6 315.304 82.448 314.28 83.12 312.808L95.36 285.832H101.984L87.92 314.92C87.152 316.52 86.24 317.8 85.184 318.76C84.16 319.752 83.024 320.472 81.776 320.92C80.56 321.368 79.248 321.592 77.84 321.592ZM80.96 312.136L68.48 285.832H75.344L87.152 312.136H80.96ZM129.656 313L128.6 302.92L129.848 299.416L128.6 295.96L129.656 285.832H136.088L134.648 299.416L136.088 313H129.656ZM131.576 299.416C130.968 302.264 129.96 304.76 128.552 306.904C127.144 309.048 125.4 310.712 123.32 311.896C121.272 313.08 118.984 313.672 116.456 313.672C113.8 313.672 111.448 313.08 109.4 311.896C107.352 310.68 105.752 309 104.6 306.856C103.448 304.712 102.872 302.232 102.872 299.416C102.872 296.568 103.448 294.088 104.6 291.976C105.752 289.832 107.352 288.168 109.4 286.984C111.448 285.768 113.8 285.16 116.456 285.16C118.984 285.16 121.272 285.752 123.32 286.936C125.4 288.12 127.144 289.784 128.552 291.928C129.992 294.04 131 296.536 131.576 299.416ZM109.208 299.416C109.208 301.24 109.576 302.856 110.312 304.264C111.08 305.64 112.12 306.728 113.432 307.528C114.744 308.296 116.248 308.68 117.944 308.68C119.672 308.68 121.272 308.296 122.744 307.528C124.216 306.728 125.512 305.64 126.632 304.264C127.784 302.856 128.696 301.24 129.368 299.416C128.696 297.592 127.784 295.992 126.632 294.616C125.512 293.208 124.216 292.12 122.744 291.352C121.272 290.552 119.672 290.152 117.944 290.152C116.248 290.152 114.744 290.552 113.432 291.352C112.12 292.12 111.08 293.208 110.312 294.616C109.576 295.992 109.208 297.592 109.208 299.416ZM148.333 307.576L146.509 306.904L163.789 285.832H170.989L147.901 313H142.093V276.04H148.333V307.576ZM156.061 299.56L160.429 295.624L171.805 313H164.461L156.061 299.56ZM186.329 313.672C183.833 313.672 181.705 313.16 179.945 312.136C178.217 311.112 176.889 309.64 175.961 307.72C175.033 305.8 174.569 303.512 174.569 300.856V285.832H180.809V299.896C180.809 302.712 181.449 304.856 182.729 306.328C184.041 307.768 185.913 308.488 188.345 308.488C190.105 308.488 191.609 308.104 192.857 307.336C194.137 306.568 195.129 305.48 195.833 304.072C196.537 302.632 196.889 300.968 196.889 299.08L199.049 300.28C198.793 303.064 198.089 305.464 196.937 307.48C195.785 309.464 194.297 311 192.473 312.088C190.649 313.144 188.601 313.672 186.329 313.672ZM198.473 313L196.889 303.208V285.832H203.129V304.168L204.713 313H198.473ZM238.237 304.744C238.237 306.568 237.725 308.152 236.701 309.496C235.677 310.84 234.125 311.88 232.045 312.616C229.965 313.32 227.357 313.672 224.221 313.672C220.989 313.672 218.189 313.272 215.821 312.472C213.453 311.64 211.613 310.488 210.301 309.016C209.021 307.512 208.333 305.784 208.237 303.832H214.573C214.765 304.856 215.277 305.768 216.109 306.568C216.973 307.336 218.093 307.928 219.469 308.344C220.877 308.76 222.477 308.968 224.269 308.968C226.861 308.968 228.813 308.664 230.125 308.056C231.437 307.416 232.093 306.456 232.093 305.176C232.093 304.312 231.645 303.656 230.749 303.208C229.885 302.76 228.237 302.424 225.805 302.2L220.477 301.72C217.597 301.464 215.325 300.952 213.661 300.184C211.997 299.384 210.813 298.424 210.109 297.304C209.405 296.152 209.053 294.936 209.053 293.656C209.053 291.8 209.629 290.248 210.781 289C211.933 287.752 213.533 286.808 215.581 286.168C217.629 285.496 220.013 285.16 222.733 285.16C225.549 285.16 228.061 285.56 230.269 286.36C232.477 287.128 234.237 288.216 235.549 289.624C236.861 291 237.597 292.6 237.757 294.424H231.421C231.293 293.688 230.909 292.984 230.269 292.312C229.661 291.608 228.717 291.032 227.437 290.584C226.189 290.104 224.509 289.864 222.397 289.864C220.157 289.864 218.397 290.152 217.117 290.728C215.869 291.304 215.245 292.152 215.245 293.272C215.245 293.976 215.629 294.584 216.397 295.096C217.165 295.576 218.589 295.912 220.669 296.104L227.533 296.728C230.285 296.984 232.429 297.48 233.965 298.216C235.533 298.92 236.637 299.832 237.277 300.952C237.917 302.072 238.237 303.336 238.237 304.744ZM243.296 276.04H249.536V313H243.296V276.04ZM260.336 285.16C262.896 285.16 265.072 285.672 266.864 286.696C268.656 287.72 270.016 289.192 270.944 291.112C271.904 293 272.384 295.288 272.384 297.976V313H266.144V298.984C266.144 296.136 265.472 293.992 264.128 292.552C262.816 291.08 260.88 290.344 258.32 290.344C256.56 290.344 255.008 290.744 253.664 291.544C252.352 292.312 251.328 293.4 250.592 294.808C249.888 296.216 249.536 297.864 249.536 299.752L247.328 298.552C247.616 295.736 248.352 293.336 249.536 291.352C250.72 289.368 252.24 287.848 254.096 286.792C255.952 285.704 258.032 285.16 260.336 285.16ZM293.472 313.672C290.304 313.672 287.488 313.08 285.024 311.896C282.56 310.68 280.624 309 279.216 306.856C277.808 304.712 277.104 302.216 277.104 299.368C277.104 296.552 277.76 294.088 279.072 291.976C280.416 289.832 282.256 288.168 284.592 286.984C286.96 285.768 289.664 285.16 292.704 285.16C295.744 285.16 298.368 285.848 300.576 287.224C302.816 288.568 304.544 290.472 305.76 292.936C306.976 295.4 307.584 298.296 307.584 301.624H282V296.872H304.464L301.344 298.648C301.248 296.856 300.816 295.32 300.048 294.04C299.312 292.76 298.304 291.784 297.024 291.112C295.776 290.408 294.288 290.056 292.56 290.056C290.736 290.056 289.136 290.424 287.76 291.16C286.416 291.896 285.36 292.936 284.592 294.28C283.824 295.592 283.44 297.16 283.44 298.984C283.44 301 283.888 302.744 284.784 304.216C285.712 305.688 287.008 306.824 288.672 307.624C290.368 308.392 292.368 308.776 294.672 308.776C296.752 308.776 298.88 308.456 301.056 307.816C303.232 307.144 305.152 306.216 306.816 305.032V309.544C305.152 310.824 303.12 311.832 300.72 312.568C298.352 313.304 295.936 313.672 293.472 313.672ZM311.422 285.832H317.662L319.294 295.624V313H313.054V294.712L311.422 285.832ZM330.094 285.16C332.654 285.16 334.83 285.672 336.622 286.696C338.414 287.72 339.774 289.192 340.702 291.112C341.662 293 342.142 295.288 342.142 297.976V313H335.902V298.984C335.902 296.136 335.23 293.992 333.886 292.552C332.574 291.08 330.638 290.344 328.078 290.344C326.318 290.344 324.766 290.744 323.422 291.544C322.11 292.312 321.086 293.4 320.35 294.808C319.646 296.216 319.294 297.864 319.294 299.752L317.086 298.552C317.374 295.736 318.11 293.336 319.294 291.352C320.478 289.368 321.998 287.848 323.854 286.792C325.71 285.704 327.79 285.16 330.094 285.16ZM354.63 307.576L352.806 306.904L370.086 285.832H377.286L354.198 313H348.39V276.04H354.63V307.576ZM362.358 299.56L366.726 295.624L378.102 313H370.758L362.358 299.56ZM394.914 313.672C391.618 313.672 388.722 313.08 386.226 311.896C383.762 310.68 381.826 309 380.418 306.856C379.042 304.712 378.354 302.232 378.354 299.416C378.354 296.568 379.042 294.088 380.418 291.976C381.826 289.832 383.762 288.168 386.226 286.984C388.722 285.768 391.618 285.16 394.914 285.16C398.21 285.16 401.09 285.768 403.554 286.984C406.05 288.168 407.986 289.832 409.362 291.976C410.77 294.088 411.474 296.568 411.474 299.416C411.474 302.232 410.77 304.712 409.362 306.856C407.986 309 406.05 310.68 403.554 311.896C401.09 313.08 398.21 313.672 394.914 313.672ZM394.914 308.776C397.026 308.776 398.834 308.392 400.338 307.624C401.874 306.856 403.058 305.784 403.89 304.408C404.722 303 405.138 301.336 405.138 299.416C405.138 297.496 404.722 295.848 403.89 294.472C403.058 293.064 401.874 291.976 400.338 291.208C398.834 290.44 397.026 290.056 394.914 290.056C392.834 290.056 391.026 290.44 389.49 291.208C387.954 291.976 386.77 293.064 385.938 294.472C385.106 295.848 384.69 297.496 384.69 299.416C384.69 301.336 385.106 303 385.938 304.408C386.77 305.784 387.954 306.856 389.49 307.624C391.026 308.392 392.834 308.776 394.914 308.776ZM430.261 310.216H427.861L438.997 285.832H445.669L432.421 313H425.413L412.165 285.832H419.029L430.261 310.216Z" fill="black"/>
<path d="M76.384 273.768C74.912 273.768 73.568 273.416 72.352 272.712C71.2 272.008 70.272 271.08 69.568 269.928C68.864 268.712 68.512 267.368 68.512 265.896C68.512 264.424 68.864 263.112 69.568 261.96C70.272 260.744 71.2 259.784 72.352 259.08C73.568 258.376 74.912 258.024 76.384 258.024C77.856 258.024 79.168 258.376 80.32 259.08C81.536 259.784 82.496 260.744 83.2 261.96C83.904 263.112 84.256 264.424 84.256 265.896C84.256 267.368 83.904 268.712 83.2 269.928C82.496 271.08 81.536 272.008 80.32 272.712C79.168 273.416 77.856 273.768 76.384 273.768ZM145.035 273L142.923 252.36L145.707 245.928L143.019 238.536L147.051 199.08H159.915L155.019 245.064L157.803 273H145.035ZM148.683 245.832C147.467 251.528 145.451 256.52 142.635 260.808C139.819 265.096 136.331 268.424 132.171 270.792C128.075 273.16 123.499 274.344 118.443 274.344C113.131 274.344 108.427 273.16 104.331 270.792C100.235 268.36 97.0353 265 94.7313 260.712C92.4273 256.424 91.2753 251.464 91.2753 245.832C91.2753 240.136 92.4273 235.176 94.7313 230.952C97.0353 226.664 100.235 223.336 104.331 220.968C108.427 218.536 113.131 217.32 118.443 217.32C123.499 217.32 128.075 218.504 132.171 220.872C136.331 223.24 139.819 226.568 142.635 230.856C145.515 235.08 147.531 240.072 148.683 245.832ZM103.947 245.832C103.947 249.48 104.683 252.712 106.155 255.528C107.691 258.28 109.771 260.456 112.395 262.056C115.019 263.592 118.027 264.36 121.419 264.36C124.875 264.36 128.075 263.592 131.019 262.056C133.963 260.456 136.555 258.28 138.795 255.528C141.099 252.712 142.923 249.48 144.267 245.832C142.923 242.184 141.099 238.984 138.795 236.232C136.555 233.416 133.963 231.24 131.019 229.704C128.075 228.104 124.875 227.304 121.419 227.304C118.027 227.304 115.019 228.104 112.395 229.704C109.771 231.24 107.691 233.416 106.155 236.232C104.683 238.984 103.947 242.184 103.947 245.832ZM199.476 274.344C193.14 274.344 187.508 273.16 182.58 270.792C177.652 268.36 173.78 265 170.964 260.712C168.148 256.424 166.74 251.432 166.74 245.736C166.74 240.104 168.052 235.176 170.676 230.952C173.364 226.664 177.044 223.336 181.716 220.968C186.452 218.536 191.86 217.32 197.94 217.32C204.02 217.32 209.268 218.696 213.684 221.448C218.164 224.136 221.62 227.944 224.052 232.872C226.484 237.8 227.7 243.592 227.7 250.248H176.532V240.744H221.46L215.22 244.296C215.028 240.712 214.164 237.64 212.628 235.08C211.156 232.52 209.14 230.568 206.58 229.224C204.084 227.816 201.108 227.112 197.652 227.112C194.004 227.112 190.804 227.848 188.052 229.32C185.364 230.792 183.252 232.872 181.716 235.56C180.18 238.184 179.412 241.32 179.412 244.968C179.412 249 180.308 252.488 182.1 255.432C183.956 258.376 186.548 260.648 189.876 262.248C193.268 263.784 197.268 264.552 201.876 264.552C206.036 264.552 210.292 263.912 214.644 262.632C218.996 261.288 222.836 259.432 226.164 257.064V266.088C222.836 268.648 218.772 270.664 213.972 272.136C209.236 273.608 204.404 274.344 199.476 274.344ZM294.224 256.488C294.224 260.136 293.2 263.304 291.152 265.992C289.104 268.68 286 270.76 281.84 272.232C277.68 273.64 272.464 274.344 266.192 274.344C259.728 274.344 254.128 273.544 249.392 271.944C244.656 270.28 240.976 267.976 238.352 265.032C235.792 262.024 234.416 258.568 234.224 254.664H246.896C247.28 256.712 248.304 258.536 249.968 260.136C251.696 261.672 253.936 262.856 256.688 263.688C259.504 264.52 262.704 264.936 266.288 264.936C271.472 264.936 275.376 264.328 278 263.112C280.624 261.832 281.936 259.912 281.936 257.352C281.936 255.624 281.04 254.312 279.248 253.416C277.52 252.52 274.224 251.848 269.36 251.4L258.704 250.44C252.944 249.928 248.4 248.904 245.072 247.368C241.744 245.768 239.376 243.848 237.968 241.608C236.56 239.304 235.856 236.872 235.856 234.312C235.856 230.6 237.008 227.496 239.312 225C241.616 222.504 244.816 220.616 248.912 219.336C253.008 217.992 257.776 217.32 263.216 217.32C268.848 217.32 273.872 218.12 278.288 219.72C282.704 221.256 286.224 223.432 288.848 226.248C291.472 229 292.944 232.2 293.264 235.848H280.592C280.336 234.376 279.568 232.968 278.288 231.624C277.072 230.216 275.184 229.064 272.624 228.168C270.128 227.208 266.768 226.728 262.544 226.728C258.064 226.728 254.544 227.304 251.984 228.456C249.488 229.608 248.24 231.304 248.24 233.544C248.24 234.952 249.008 236.168 250.544 237.192C252.08 238.152 254.928 238.824 259.088 239.208L272.816 240.456C278.32 240.968 282.608 241.96 285.68 243.432C288.816 244.84 291.024 246.664 292.304 248.904C293.584 251.144 294.224 253.672 294.224 256.488ZM304.343 218.28L310.583 219.432L316.823 218.28V273H304.343V218.28ZM310.583 211.464C308.215 211.464 306.263 210.824 304.727 209.544C303.191 208.2 302.423 206.472 302.423 204.36C302.423 202.248 303.191 200.552 304.727 199.272C306.263 197.928 308.215 197.256 310.583 197.256C313.015 197.256 314.967 197.928 316.439 199.272C317.975 200.552 318.743 202.248 318.743 204.36C318.743 206.472 317.975 208.2 316.439 209.544C314.967 210.824 313.015 211.464 310.583 211.464ZM378.251 218.664H390.731L393.995 238.248V273H381.515V236.424L378.251 218.664ZM415.595 217.32C420.715 217.32 425.067 218.344 428.651 220.392C432.235 222.44 434.955 225.384 436.811 229.224C438.731 233 439.691 237.576 439.691 242.952V273H427.211V244.968C427.211 239.272 425.867 234.984 423.179 232.104C420.555 229.16 416.683 227.688 411.563 227.688C408.043 227.688 404.939 228.488 402.251 230.088C399.627 231.624 397.579 233.8 396.107 236.616C394.699 239.432 393.995 242.728 393.995 246.504L389.579 244.104C390.155 238.472 391.627 233.672 393.995 229.704C396.363 225.736 399.403 222.696 403.115 220.584C406.827 218.408 410.987 217.32 415.595 217.32Z" fill="#FF4100"/>
<g clip-path="url(#clip0_859_249)">
<path d="M364.325 250.128V243.123L364.681 241.862V234.226L364.325 232.825V220.215H373.591V249.288C373.591 254.378 372.498 258.628 370.312 262.037C368.126 265.493 365.133 268.085 361.332 269.813C357.53 271.541 353.159 272.405 348.217 272.405C344.606 272.405 341.28 271.938 338.239 271.004C335.198 270.07 332.252 268.646 329.401 266.731V259.165C332.3 261.407 335.293 262.971 338.382 263.859C341.47 264.793 344.559 265.26 347.647 265.26C353.064 265.26 357.198 263.952 360.049 261.337C362.9 258.722 364.325 254.985 364.325 250.128ZM344.939 256.783C341.233 256.783 337.907 256.013 334.961 254.472C332.015 252.884 329.687 250.689 327.976 247.886C326.265 245.084 325.41 241.792 325.41 238.009C325.41 234.226 326.265 230.933 327.976 228.131C329.687 225.329 332.015 223.157 334.961 221.616C337.907 220.028 341.233 219.234 344.939 219.234C347.695 219.234 350.237 219.655 352.565 220.495C354.941 221.336 357.055 222.457 358.908 223.858C360.809 225.212 362.401 226.73 363.684 228.411C365.014 230.046 366.036 231.727 366.748 233.455C367.461 235.137 367.817 236.678 367.817 238.079C367.817 239.9 367.271 241.909 366.178 244.104C365.085 246.252 363.517 248.283 361.474 250.198C359.479 252.113 357.079 253.701 354.276 254.962C351.472 256.176 348.36 256.783 344.939 256.783ZM347.79 250.058C351.163 250.058 354.252 249.101 357.055 247.186C359.906 245.271 362.448 242.212 364.681 238.009C362.448 233.712 359.906 230.63 357.055 228.762C354.252 226.847 351.163 225.89 347.79 225.89C345.034 225.89 342.682 226.403 340.734 227.431C338.786 228.458 337.289 229.883 336.244 231.704C335.246 233.525 334.747 235.627 334.747 238.009C334.747 240.344 335.246 242.422 336.244 244.244C337.289 246.065 338.786 247.49 340.734 248.517C342.682 249.544 345.034 250.058 347.79 250.058Z" fill="#FF4100"/>
</g>
<defs>
<clipPath id="clip0_859_249">
<rect width="49" height="54" fill="white" transform="translate(325 219)"/>
</clipPath>
</defs>
</svg>
